<?xml version="1.0" encoding="utf-8"?>
<!-- Generator: Adobe Illustrator 27.3.1, SVG Export Plug-In . SVG Version: 6.00 Build 0)  -->
<svg version="1.1" id="Layer_1" xmlns:sketch="http://www.bohemiancoding.com/sketch/ns"
	 xmlns="http://www.w3.org/2000/svg" xmlns:xlink="http://www.w3.org/1999/xlink" x="0px" y="0px" viewBox="0 0 56 67.5"
	 style="enable-background:new 0 0 56 67.5;" xml:space="preserve">
<style type="text/css">
	.st0{fill:none;}
	.st1{fill:#D71920;}
</style>
<g>
	<path class="st0" d="M29.7,34.9l4-4c0,0-3.1-3.1-5.4-5.4l-4.2,3.9L29.7,34.9z"/>
	<polygon class="st0" points="32,37.2 42.4,47.5 46.5,43.5 36.1,33.2 	"/>
	<path class="st1" d="M50,43.6c-0.1-0.6-0.9-1.1-1.4-1.6L29.8,23.3l7.9-7.2c-2.1-2.1-4.9-3.6-7.9-3.6s-5.6,1.8-8.4,3.9l-5.7,5
		c-2.5,2.3-2.7,4.1-2.4,5.1l-2.9,2.8c-0.1,0.1-0.3,0.1-0.4,0.1c-0.1,0-0.2,0-0.3-0.2l-0.6-0.6c-0.7-0.7-1.9-0.8-2.7-0.1L3.7,31
		c-0.8,0.7-0.8,1.9-0.1,2.7l6.6,7.4c0.3,0.4,0.8,0.6,1.3,0.6s1-0.2,1.4-0.5l2.7-2.5c0.8-0.7,0.8-1.9,0.1-2.7l-0.6-0.6
		C15,35.3,15,35.1,15,35c0-0.1,0-0.2,0.2-0.3l2.9-2.7l0,0c0.3,0.2,0.7,0.2,1.1,0.3c1.4,0.2,2-0.6,2.7-1l0.3,0.3L41,50.4
		c0.5,0.5,1,0.7,1.7,0.7s1.3-0.4,1.8-0.9l5-5.1C50,44.7,50.1,44.2,50,43.6z M20,30c-0.3,0.1-0.7,0.2-0.9,0.1
		c-0.8-0.4-1.7-0.3-2.3,0.3l-3,2.8C13.3,33.7,13,34.3,13,35s0.2,1.4,0.7,1.9l0.4,0.4l-2.3,2.2l-6.2-7l2.3-2.2l0.4,0.4
		c1,1,2.7,1.1,3.7,0.1l3.1-2.9c0.5-0.5,0.6-1.1,0.4-2C15.1,24,24.7,17,24.8,17c0,0,2.2-1.6,3.8-1.9c2.7-0.6,4.8,0.6,6,1.4L20,30z
		 M23.8,29.7l4.6-4.2c2.3,2.3,5.4,5.4,5.4,5.4l-4.4,4.3L23.8,29.7z M42.1,47.9L31.7,37.6l4.3-4.4l10.4,10.3L42.1,47.9z"/>
</g>
</svg>
