<?xml version="1.0" encoding="utf-8"?>
<!-- Generator: Adobe Illustrator 27.3.1, SVG Export Plug-In . SVG Version: 6.00 Build 0)  -->
<svg version="1.1" id="Layer_1" xmlns="http://www.w3.org/2000/svg" xmlns:xlink="http://www.w3.org/1999/xlink" x="0px" y="0px"
	 viewBox="0 0 48 48" style="enable-background:new 0 0 48 48;" xml:space="preserve">
<style type="text/css">
	.st0{fill:#D71920;}
</style>
<path class="st0" d="M42.7,12.8l0.4-2.2H3.4l0.2,2.2h0l1,14.5l0.1,2.2l5.5,0l-1,9.8h0l-0.2,2.2l28,0l-0.2-2.2h0l-0.5-9.8l4.2,0
	l0.2-1.8h0l0.1-0.5l0,0l0,0L42.7,12.8L42.7,12.8z M39.8,15l-1.3,10.2h-2.4h-5.3V15H39.8z M29.1,15v10.2h-9.7V15H29.1z M17.8,15v10.2
	h-7.1H7L6.3,15H17.8z M20.8,29.6v7.3h-8.8l0.7-7.3L20.8,29.6z M34.2,36.9H22.5v-7.3l11.3,0L34.2,36.9z"/>
</svg>
