<svg width="168" height="100" viewBox="0 0 168 100" fill="none" xmlns="http://www.w3.org/2000/svg">
<path d="M100 0H0V100H100V0Z" fill="#D71920"/>
<path d="M49.9468 55.1195L53.3943 43.6229L56.7715 55.1195H49.9468ZM91.9574 41.6295V34.9535H68.6746V63.089L58.4196 35.5883H48.644L39.2629 63.0093V47.9097H25.9906V54.1063H30.3638C30.3638 56.6521 26.6294 57.8407 24.5617 57.8407C22.494 57.8407 18.3612 57.3652 18.3612 48.7822C18.3612 40.1992 24.1633 40.2789 24.1633 40.2789C29.0916 40.2789 29.729 44.174 29.729 44.174H38.5484C37.0398 35.8274 30.2841 33.8393 24.7224 33.68C19.1566 33.5206 9.62012 37.0199 9.62012 48.7822C9.62012 60.5445 16.1394 64.9907 23.1314 65.1541C29.887 65.3134 32.8273 60.8606 32.8273 60.8606V64.8353H46.976L48.2456 61.0213H58.7529L59.8485 64.7557H78.0477V54.2656H89.0969V47.6693H78.0477V41.6282H91.9574V41.6295Z" fill="white"/>
<path d="M120.071 17.5H122.029L123.653 24.4044L125.315 17.5H126.783L128.459 24.4177L130.068 17.5H132.014L129.438 27.0325H127.71L126.037 20.2689L124.374 27.0325H122.596L120.071 17.5Z" fill="#494949"/>
<path d="M137.235 22.7682C137.171 22.0989 136.462 21.1574 135.225 21.1706C133.976 21.1706 133.293 22.0737 133.229 22.7682H137.236H137.235ZM133.203 24.0564C133.281 25.1906 134.285 25.8214 135.25 25.8081C136.075 25.8081 136.629 25.4349 136.95 24.8546H138.691C138.355 25.6408 137.853 26.2331 137.26 26.6328C136.669 27.0445 135.972 27.2516 135.237 27.2516C133.059 27.2516 131.501 25.4854 131.501 23.5146C131.501 21.5438 133.071 19.7404 135.211 19.7404C136.268 19.7404 137.195 20.1388 137.852 20.8227C138.715 21.7111 139.037 22.8187 138.896 24.0551H133.201L133.203 24.0564Z" fill="#494949"/>
<path d="M126.629 37.2052C126.629 36.1879 125.894 35.0286 124.465 35.0286C123.847 35.0286 123.318 35.2729 122.93 35.6713C122.557 36.0591 122.326 36.6129 122.326 37.2304C122.326 37.8479 122.558 38.3778 122.944 38.7629C123.331 39.1507 123.872 39.3951 124.479 39.3951C125.767 39.3951 126.629 38.3778 126.629 37.2171V37.2039V37.2052ZM120.715 33.6753H122.299V34.7058C122.801 33.998 123.626 33.4562 124.799 33.4562C127.273 33.4562 128.317 35.5558 128.317 37.2689C128.317 39.2782 126.885 40.9675 124.812 40.9675C123.434 40.9675 122.686 40.2596 122.404 39.8068V43.2211H120.715V33.674V33.6753Z" fill="#494949"/>
<path d="M129.362 33.6753H130.959V34.6023C131.269 33.9714 131.848 33.4695 132.917 33.4562V35.156H132.841C131.655 35.156 131.051 35.7098 131.051 36.9343V40.7497H129.362V33.6753Z" fill="#494949"/>
<path d="M134.595 37.2185C134.595 38.4549 135.536 39.3712 136.694 39.3712C137.852 39.3712 138.781 38.4562 138.781 37.2065C138.781 35.9569 137.854 35.0418 136.694 35.0418C135.533 35.0418 134.595 35.9569 134.595 37.2065V37.2198V37.2185ZM132.906 37.1919C132.906 35.3885 134.233 33.4681 136.694 33.4681C139.155 33.4681 140.483 35.3885 140.483 37.2052C140.483 39.0219 139.156 40.9542 136.694 40.9542C134.232 40.9542 132.906 39.0352 132.906 37.2052V37.1919Z" fill="#494949"/>
<path d="M141.928 34.9768H140.754V33.6753H141.928V31.2158H143.614V33.6753H144.827V34.9768H143.614V40.7497H141.928V34.9768Z" fill="#494949"/>
<path d="M150.521 36.4841C150.458 35.8147 149.748 34.8732 148.512 34.8865C147.262 34.8865 146.58 35.7895 146.516 36.4841H150.523H150.521ZM146.489 37.7722C146.568 38.9064 147.572 39.5372 148.537 39.5239C149.362 39.5239 149.916 39.1507 150.238 38.5704H151.977C151.641 39.3566 151.139 39.9489 150.545 40.3486C149.954 40.7603 149.257 40.9675 148.523 40.9675C146.346 40.9675 144.787 39.2012 144.787 37.2304C144.787 35.2596 146.359 33.4562 148.496 33.4562C149.553 33.4562 150.481 33.8546 151.137 34.5385C152.001 35.427 152.322 36.5345 152.181 37.7709H146.487L146.489 37.7722Z" fill="#494949"/>
<path d="M160.252 38.172C159.853 39.7444 158.448 40.9675 156.618 40.9675C154.376 40.9675 152.831 39.2291 152.831 37.2065C152.831 35.1839 154.44 33.4562 156.553 33.4562C158.331 33.4562 159.84 34.577 160.252 36.3035H158.525C158.229 35.5558 157.545 35.0286 156.618 35.0286C155.999 35.0153 155.522 35.2344 155.111 35.6341C154.75 36.0193 154.53 36.5876 154.53 37.2065C154.53 38.4814 155.42 39.3831 156.618 39.3831C157.675 39.3831 158.267 38.7523 158.525 38.172H160.252Z" fill="#494949"/>
<path d="M161.722 34.9768H160.549V33.6753H161.722V31.2158H163.408V33.6753H164.621V34.9768H163.408V40.7497H161.722V34.9768Z" fill="#494949"/>
<path d="M119.981 47.3911H121.732L123.137 52.3128L124.491 47.6222H125.92L127.299 52.3128L128.677 47.3911H130.43L128.161 54.4642H126.576L125.185 49.6846L123.832 54.4642H122.248L119.981 47.3911Z" fill="#494949"/>
<path d="M131.115 44.9303H132.801V48.2278C133.201 47.4801 134.052 47.1587 134.889 47.1707C135.985 47.1707 136.669 47.5452 137.08 48.1627C137.505 48.7816 137.634 49.6195 137.634 50.5731V54.4642H135.945V50.6514C135.945 50.1096 135.856 49.6461 135.623 49.3114C135.378 48.9754 134.991 48.7577 134.398 48.7577C133.728 48.7577 133.329 49.0286 133.096 49.3765C132.864 49.7231 132.8 50.1494 132.8 50.5093V54.4655H131.114V44.9316L131.115 44.9303Z" fill="#494949"/>
<path d="M140.342 50.9608C140.342 51.836 140.974 53.1109 142.495 53.1109C143.435 53.1109 144.054 52.6209 144.375 51.9781C144.544 51.6687 144.621 51.3327 144.646 50.9847C144.659 50.6514 144.596 50.3021 144.454 49.9927C144.157 49.3234 143.5 48.743 142.483 48.743C141.116 48.743 140.343 49.8519 140.343 50.9476V50.9608H140.342ZM146.321 54.4642H144.631V53.4469C144.181 54.2716 143.241 54.6833 142.249 54.6833C139.981 54.6833 138.654 52.9183 138.654 50.9223C138.654 48.6926 140.264 47.172 142.249 47.172C143.537 47.172 144.323 47.8559 144.631 48.4217V47.3911H146.321V54.4655V54.4642Z" fill="#494949"/>
<path d="M148.204 48.6926H147.03V47.3911H148.204V44.9303H149.892V47.3911H151.103V48.6926H149.892V54.4642H148.204V48.6926Z" fill="#494949"/>
<path d="M120.715 61.1069H122.299V61.9967C122.454 61.674 123.137 60.8878 124.361 60.8878C124.941 60.8878 125.584 61.0551 126.099 61.6089C126.254 61.7763 126.435 62.0724 126.525 62.2544C126.653 62.0339 126.807 61.8028 127.041 61.5837C127.479 61.172 128.095 60.8878 128.844 60.8878C129.435 60.8878 130.183 61.0419 130.724 61.5957C131.37 62.2663 131.497 62.8453 131.497 64.3022V68.18H129.811V64.3646C129.811 63.9144 129.772 63.4243 129.527 63.0525C129.347 62.7045 129.011 62.4721 128.418 62.4721C127.824 62.4721 127.412 62.7298 127.195 63.1149C126.975 63.5027 126.95 63.8745 126.95 64.3008V68.1787H125.261V64.3008C125.261 63.8878 125.224 63.4894 125.042 63.1282C124.836 62.755 124.488 62.4854 123.882 62.4721C123.264 62.4721 122.877 62.7683 122.67 63.1282C122.464 63.5027 122.4 63.9396 122.4 64.3513V68.1787H120.711V61.1043L120.715 61.1069Z" fill="#494949"/>
<path d="M134.194 64.6753C134.194 65.5505 134.827 66.8254 136.347 66.8254C137.287 66.8254 137.906 66.3353 138.229 65.6926C138.396 65.3832 138.473 65.0472 138.499 64.6992C138.512 64.3659 138.448 64.0166 138.306 63.7072C138.01 63.0379 137.352 62.4575 136.335 62.4575C134.969 62.4575 134.196 63.5664 134.196 64.662V64.6753H134.194ZM140.173 68.1786H138.487V67.1614C138.035 67.9861 137.095 68.3978 136.103 68.3978C133.836 68.3978 132.508 66.6328 132.508 64.6368C132.508 62.4071 134.117 60.8865 136.103 60.8865C137.391 60.8865 138.177 61.5704 138.487 62.1361V61.1056H140.173V68.18V68.1786Z" fill="#494949"/>
<path d="M142.056 62.407H140.882V61.1068H142.056V58.646H143.744V61.1068H144.955V62.407H143.744V68.1799H142.056V62.407Z" fill="#494949"/>
<path d="M146.142 62.407H144.97V61.1068H146.142V58.646H147.829V61.1068H149.041V62.407H147.829V68.1799H146.142V62.407Z" fill="#494949"/>
<path d="M154.735 63.9157C154.671 63.2464 153.962 62.3048 152.726 62.3181C151.476 62.3181 150.793 63.2211 150.73 63.9157H154.736H154.735ZM150.703 65.2039C150.782 66.338 151.785 66.9688 152.751 66.9555C153.576 66.9555 154.129 66.5824 154.451 66.002H156.192C155.856 66.7882 155.354 67.3805 154.76 67.7802C154.169 68.1919 153.472 68.3991 152.738 68.3991C150.561 68.3991 149.002 66.6328 149.002 64.6621C149.002 62.6913 150.572 60.8878 152.711 60.8878C153.768 60.8878 154.697 61.2862 155.353 61.9702C156.216 62.8586 156.537 63.9662 156.396 65.2026H150.702L150.703 65.2039Z" fill="#494949"/>
<path d="M157.418 61.1069H159.015V62.0339C159.325 61.4031 159.904 60.9011 160.973 60.8878V62.5877H160.897C159.711 62.5877 159.107 63.1415 159.107 64.3659V68.1813H157.418V61.1069Z" fill="#494949"/>
<path d="M164.723 63.0126C164.71 62.6381 164.517 62.253 163.86 62.253C163.294 62.253 163.023 62.6142 163.023 62.9608C163.037 63.411 163.552 63.6581 164.221 63.8506C165.355 64.16 166.58 64.4934 166.592 66.014C166.618 67.4708 165.392 68.3978 163.912 68.3978C162.816 68.3978 161.335 67.8307 161.207 66.1175H162.893C162.958 66.8772 163.614 67.0312 163.937 67.0312C164.465 67.0312 164.916 66.6846 164.902 66.2079C164.902 65.6023 164.374 65.4349 163.072 64.9821C162.119 64.6873 161.346 64.1587 161.334 63.1401C161.334 61.7497 162.507 60.8865 163.872 60.8865C164.827 60.8865 166.242 61.3128 166.386 63.0126H164.723Z" fill="#494949"/>
<path d="M120.715 74.8214H122.299V75.7112C122.454 75.3885 123.137 74.6023 124.361 74.6023C124.941 74.6023 125.584 74.7696 126.099 75.3234C126.254 75.4907 126.435 75.7869 126.525 75.9688C126.653 75.7484 126.807 75.5173 127.041 75.2982C127.479 74.8865 128.095 74.6023 128.844 74.6023C129.435 74.6023 130.183 74.7563 130.724 75.3101C131.37 75.9808 131.497 76.5598 131.497 78.0166V81.8945H129.811V78.0791C129.811 77.6289 129.772 77.1388 129.527 76.7643C129.347 76.4177 129.011 76.1853 128.418 76.1853C127.824 76.1853 127.412 76.4429 127.195 76.8281C126.975 77.2158 126.95 77.5877 126.95 78.014V81.8918H125.261V78.014C125.261 77.601 125.224 77.2026 125.042 76.8413C124.836 76.4682 124.488 76.1986 123.882 76.1853C123.264 76.1853 122.877 76.4814 122.67 76.8413C122.464 77.2158 122.4 77.6528 122.4 78.0644V81.8918H120.711V74.8174L120.715 74.8214Z" fill="#494949"/>
<path d="M134.195 78.3646C134.195 79.601 135.135 80.5173 136.293 80.5173C137.451 80.5173 138.381 79.6023 138.381 78.3526C138.381 77.103 137.454 76.188 136.293 76.188C135.132 76.188 134.195 77.103 134.195 78.3526V78.3659V78.3646ZM132.505 78.338C132.505 76.5346 133.832 74.6143 136.293 74.6143C138.754 74.6143 140.082 76.5346 140.082 78.3513C140.082 80.168 138.755 82.1003 136.293 82.1003C133.831 82.1003 132.505 80.1813 132.505 78.3513V78.338Z" fill="#494949"/>
<path d="M144.195 76.7285C144.181 76.354 143.989 75.9688 143.331 75.9688C142.764 75.9688 142.495 76.33 142.495 76.6767C142.508 77.1269 143.023 77.3725 143.693 77.5664C144.827 77.8759 146.051 78.2092 146.063 79.7298C146.09 81.1866 144.864 82.1136 143.383 82.1136C142.288 82.1136 140.807 81.5465 140.678 79.8334H142.365C142.43 80.593 143.086 80.7471 143.408 80.7471C143.937 80.7471 144.387 80.4004 144.374 79.9237C144.374 79.3181 143.845 79.1508 142.544 78.6979C141.59 78.4031 140.817 77.8745 140.805 76.856C140.805 75.4655 141.978 74.6023 143.343 74.6023C144.298 74.6023 145.714 75.0286 145.857 76.7285H144.195Z" fill="#494949"/>
<path d="M147.533 76.1228H146.361V74.8213H147.533V72.3618H149.22V74.8213H150.432V76.1228H149.22V81.8957H147.533V76.1228Z" fill="#494949"/>
<path d="M152.54 72.3658H153.171L153.752 73.8718L154.325 72.3658H154.95V74.5358H154.485V72.9382L153.909 74.5358H153.582L153.007 72.9475V74.5358H152.542V72.3658H152.54ZM151.274 72.7802H150.791V72.3658H152.25V72.7802H151.767V74.5358H151.273V72.7802H151.274Z" fill="#494949"/>
</svg>
