<?xml version="1.0" encoding="utf-8"?>
<!-- Generator: Adobe Illustrator 27.3.1, SVG Export Plug-In . SVG Version: 6.00 Build 0)  -->
<svg version="1.1" id="Layer_1" xmlns="http://www.w3.org/2000/svg" xmlns:xlink="http://www.w3.org/1999/xlink" x="0px" y="0px"
	 viewBox="0 0 48 48" style="enable-background:new 0 0 48 48;" xml:space="preserve">
<style type="text/css">
	.st0{fill:#D71920;}
</style>
<path class="st0" d="M24,40.6c-4-1-7.4-3.2-10-6.8c-2.6-3.5-3.9-7.4-3.9-11.6v-9.9l13.9-5l13.9,5v9.9c0,4.2-1.3,8.1-3.9,11.6
	C31.4,37.4,28,39.7,24,40.6L24,40.6z M24,37.8c3.2-1.1,5.9-3,7.9-5.9s3.1-6.1,3.1-9.6v-8l-11-4l-11,4v8c0,3.6,1,6.8,3.1,9.6
	C18.1,34.7,20.8,36.7,24,37.8z M20.3,30.6h7.3c0.4,0,0.8-0.1,1-0.4c0.3-0.3,0.4-0.6,0.4-1v-5.6c0-0.4-0.1-0.7-0.4-0.9
	c-0.2-0.2-0.5-0.3-0.9-0.3h-0.4v-1.6c0-0.9-0.3-1.7-1-2.3c-0.7-0.6-1.5-1-2.4-1c-0.9,0-1.7,0.3-2.4,1c-0.7,0.6-1,1.4-1,2.3v1.6h-0.4
	c-0.4,0-0.7,0.1-0.9,0.3c-0.2,0.2-0.4,0.5-0.4,0.9v5.6c0,0.4,0.1,0.7,0.4,1C19.6,30.4,19.9,30.6,20.3,30.6z M21.9,22.3v-1.6
	c0-0.5,0.2-1,0.6-1.4c0.4-0.4,0.9-0.6,1.5-0.6c0.6,0,1.1,0.2,1.5,0.6c0.4,0.4,0.6,0.8,0.6,1.4v1.6H21.9z"/>
</svg>
