<?xml version="1.0" encoding="utf-8"?>
<svg version="1.0" xmlns="http://www.w3.org/2000/svg" width="1024.000000pt" height="400.000000pt" viewBox="0 0 1024.000000 400.000000" preserveAspectRatio="xMidYMid meet" xmlns:bx="https://boxy-svg.com"><defs><bx:export><bx:file format="svg" units="pt"/></bx:export></defs><g transform="translate(0.000000,400.000000) scale(0.100000,-0.100000)" fill="#000000" stroke="none"><path d="M 2061.63 2855.37 C 1998.18 2802.34 1856.14 2682.08 1744.4 2588.33 C 1632.67 2495.54 1466.96 2354.45 1376.05 2276.8 C 1285.15 2199.15 1183.83 2113.93 1150.69 2088.36 L 1091.98 2040.07 L 1091.98 1166.07 L 1091.98 292.06 L 2185.67 292.06 L 3279.36 292.06 L 3279.36 1157.55 L 3279.36 2023.98 L 3196.97 2093.1 C 3152.47 2130.97 3070.09 2201.05 3015.16 2247.45 C 2750.03 2474.71 2641.14 2566.56 2420.51 2752.15 C 2288.89 2862.95 2179.99 2952.9 2179.04 2951.95 C 2177.15 2951.95 2124.12 2908.4 2061.63 2855.37 Z M 2254.8 2586.44 C 2290.78 2556.15 2392.09 2469.97 2480.16 2393.27 C 2568.22 2317.52 2730.15 2180.22 2839.99 2088.36 C 2950.78 1996.52 3043.58 1914.14 3046.42 1905.61 C 3049.25 1897.09 3052.1 1571.35 3052.1 1181.22 L 3052.1 471.98 L 2786.97 471.98 L 2521.82 471.98 L 2521.82 1305.27 L 2521.82 2138.55 L 2441.34 2138.55 L 2360.85 2138.55 L 2360.85 1977.58 L 2360.85 1816.6 L 2179.99 1816.6 L 1999.12 1816.6 L 2005.75 1977.58 L 2012.38 2138.55 L 1927.16 2138.55 L 1840.99 2138.55 L 1836.26 2108.25 C 1830.57 2071.32 1815.43 1757.9 1802.17 1414.16 C 1790.81 1131.03 1776.6 779.73 1768.08 597.91 L 1761.45 471.98 L 1540.82 471.98 L 1319.24 471.98 L 1319.24 1198.27 L 1319.24 1924.55 L 1350.49 1951.06 C 1390.26 1986.1 1862.77 2380.02 2038.9 2525.84 C 2114.65 2588.33 2179.04 2639.47 2183.78 2639.47 C 2187.56 2640.42 2219.76 2615.8 2254.8 2586.44 Z M 2360.85 1518.32 L 2360.85 1390.49 L 2176.2 1390.49 L 1991.56 1390.49 L 1991.56 1518.32 L 1991.56 1646.16 L 2176.2 1646.16 L 2360.85 1646.16 L 2360.85 1518.32 Z M 2360.85 1096.94 L 2360.85 964.37 L 2171.46 964.37 L 1982.09 964.37 L 1982.09 1096.94 L 1982.09 1229.51 L 2171.46 1229.51 L 2360.85 1229.51 L 2360.85 1096.94 Z M 2360.85 642.42 L 2360.85 471.98 L 2166.73 471.98 L 1972.62 471.98 L 1972.62 642.42 L 1972.62 812.87 L 2166.73 812.87 L 2360.85 812.87 L 2360.85 642.42 Z" style="fill: rgb(33, 37, 41);"/><path d="M4042 2941 c-108 -24 -207 -80 -292 -165 -121 -120 -173 -253 -173 -440 0 -185 52 -317 173 -440 126 -128 254 -180 445 -180 182 0 301 46 415 160 61 60 130 173 130 211 0 11 -25 14 -119 14 l-120 0 -30 -42 c-71 -98 -205 -146 -347 -123 -221 35 -351 250 -304 500 23 123 88 215 192 271 61 33 67 34 173 34 93 0 118 -4 161 -23 59 -27 113 -79 144 -139 l22 -43 120 0 120 0 -7 33 c-13 61 -78 168 -137 228 -131 130 -359 189 -566 144z" style="fill: rgb(33, 37, 41);"/><path d="M4860 2326 l0 -590 110 0 110 0 0 590 0 590 -110 0 -110 0 0 -590z" style="fill: rgb(33, 37, 41);"/><path d="M5535 2621 c-197 -50 -320 -203 -332 -415 -9 -143 29 -250 126 -353 84 -90 197 -137 331 -137 174 0 315 82 389 227 11 23 21 45 21 48 0 3 -52 5 -115 5 -103 0 -115 -2 -125 -20 -6 -11 -30 -31 -54 -45 -136 -80 -308 -7 -341 143 l-7 32 321 0 321 0 0 63 c0 34 -7 93 -15 131 -49 232 -289 381 -520 321z m183 -190 c50 -22 80 -51 108 -109 13 -28 24 -51 24 -53 0 -2 -92 -3 -205 -3 -226 0 -219 -2 -191 63 17 40 71 91 111 105 45 16 111 14 153 -3z" style="fill: rgb(33, 37, 41);"/><path d="M6520 2625 c-110 -21 -230 -116 -285 -224 -85 -170 -58 -409 64 -546 144 -163 414 -186 553 -47 l38 38 0 -55 0 -55 105 0 105 0 0 440 0 440 -105 0 -105 0 0 -56 0 -56 -40 35 c-52 48 -103 73 -175 86 -67 12 -91 12 -155 0z m226 -213 c172 -80 182 -366 15 -464 -37 -21 -57 -26 -111 -26 -41 1 -80 8 -103 19 -103 49 -161 193 -127 317 17 60 70 129 119 155 60 31 139 31 207 -1z" style="fill: rgb(33, 37, 41);"/><path d="M7655 2623 c-63 -21 -99 -43 -138 -84 l-37 -37 0 57 0 57 -105 0 -105 0 0 -440 0 -440 110 0 110 0 0 256 c0 287 5 317 60 375 90 95 246 63 279 -56 7 -25 11 -143 11 -307 l0 -268 106 0 105 0 -3 328 c-3 310 -4 330 -25 382 -31 75 -74 124 -136 154 -64 32 -173 42 -232 23z" style="fill: rgb(33, 37, 41);"/><path d="M5700 1528 c-100 -50 -106 -193 -10 -244 99 -52 210 15 210 127 0 103 -105 165 -200 117z" style="fill: rgb(0, 120, 72);"/><path d="M3620 886 c0 -324 -1 -593 -2 -597 -2 -5 129 -9 291 -11 332 -3 378 3 468 63 28 19 65 54 82 79 31 44 61 137 61 186 0 47 -31 145 -58 184 -23 33 -85 82 -126 100 -7 3 -3 11 9 21 100 79 127 131 127 247 0 95 -29 165 -92 222 -94 85 -153 96 -497 96 l-263 0 0 -590z m557 374 c43 -32 64 -76 65 -135 0 -58 -18 -90 -72 -126 -30 -21 -44 -23 -176 -23 l-144 0 0 156 0 155 149 -3 c134 -3 153 -5 178 -24z m29 -490 c47 -35 67 -70 72 -128 6 -72 -24 -127 -83 -156 -36 -17 -62 -20 -193 -20 l-152 0 0 166 0 165 164 -3 c148 -3 167 -5 192 -24z" style="fill: rgb(0, 120, 72);"/><path d="M6050 876 l0 -600 115 0 115 0 0 600 0 600 -115 0 -115 0 0 -600z" style="fill: rgb(0, 120, 72);"/><path d="M7130 1271 c0 -113 -2 -205 -4 -205 -2 0 -21 16 -42 35 -113 104 -361 97 -495 -12 -106 -87 -158 -192 -166 -339 -12 -198 57 -354 195 -442 147 -94 367 -79 475 33 l37 38 0 -51 0 -52 110 0 110 0 0 600 0 600 -110 0 -110 0 0 -205z m-133 -318 c106 -55 162 -217 119 -340 -48 -133 -200 -195 -331 -134 -56 27 -95 75 -121 151 -30 88 -3 215 60 284 60 67 185 84 273 39z" style="fill: rgb(0, 120, 72);"/><path d="M7808 1157 c-193 -62 -308 -230 -308 -451 0 -140 45 -256 131 -339 89 -85 187 -121 330 -121 183 0 303 70 379 220 l30 60 -111 0 -111 0 -38 -38 c-76 -79 -209 -83 -302 -10 -33 25 -78 112 -78 148 0 6 123 10 325 10 l325 0 0 63 c0 83 -24 190 -57 254 -30 60 -110 141 -169 171 -105 54 -241 66 -346 33z m228 -190 c23 -10 53 -34 66 -52 23 -31 48 -89 48 -110 0 -5 -92 -9 -205 -9 -231 0 -222 -3 -186 75 22 49 59 86 103 101 50 19 127 16 174 -5z" style="fill: rgb(0, 120, 72);"/><path d="M8885 1164 c-43 -15 -94 -55 -116 -92 l-19 -31 0 63 0 62 -115 0 -115 0 0 -445 0 -445 115 0 115 0 0 243 c0 145 5 258 11 282 25 88 91 135 194 135 l55 0 0 120 0 120 -47 -1 c-27 0 -61 -5 -78 -11z" style="fill: rgb(0, 120, 72);"/><path d="M9340 1158 c-80 -27 -112 -46 -152 -90 -47 -52 -56 -70 -68 -134 -22 -115 28 -212 135 -263 30 -14 103 -36 162 -50 131 -30 170 -47 185 -80 25 -55 -40 -115 -124 -115 -84 0 -143 37 -154 97 l-6 33 -115 0 -115 0 7 -47 c16 -106 88 -193 194 -235 47 -18 76 -22 181 -23 117 0 129 2 187 29 121 56 183 161 169 288 -13 131 -82 187 -276 228 -137 29 -198 55 -207 88 -8 32 14 72 47 89 30 15 108 17 143 4 29 -11 77 -60 77 -78 0 -10 27 -13 106 -13 l107 0 -6 45 c-13 94 -71 165 -171 211 -80 36 -223 44 -306 16z" style="fill: rgb(0, 120, 72);"/><path d="M4630 884 c0 -156 4 -310 10 -343 14 -90 65 -181 125 -227 68 -52 138 -71 239 -66 92 5 141 26 195 82 19 20 39 36 43 36 4 0 8 -20 8 -45 l0 -45 110 0 110 0 0 445 0 445 -115 0 -115 0 0 -244 c0 -260 -8 -332 -41 -381 -66 -96 -216 -112 -288 -30 -16 19 -35 51 -40 72 -7 22 -11 151 -11 311 l0 272 -115 0 -115 0 0 -282z" style="fill: rgb(0, 120, 72);"/><path d="M5640 721 l0 -445 115 0 115 0 0 445 0 445 -115 0 -115 0 0 -445z" style="fill: rgb(0, 120, 72);"/></g></svg> 